<?xml version="1.0" standalone="no"?>
<!DOCTYPE svg PUBLIC "-//W3C//DTD SVG 20010904//EN"
 "http://www.w3.org/TR/2001/REC-SVG-20010904/DTD/svg10.dtd">
<svg version="1.0" xmlns="http://www.w3.org/2000/svg"
 width="128.000000pt" height="128.000000pt" viewBox="0 0 128.000000 128.000000"
 preserveAspectRatio="xMidYMid meet">

<g transform="translate(0.000000,128.000000) scale(0.100000,-0.100000)"
fill="#000000" stroke="none">
<path d="M162 1184 l-23 -16 7 -336 c5 -264 9 -342 20 -359 14 -22 20 -23 164
-23 l150 0 0 -35 c0 -34 -1 -35 -38 -35 -45 0 -72 -24 -72 -63 l0 -27 250 0
250 0 0 28 c0 38 -28 62 -74 62 -36 0 -37 1 -34 33 3 28 7 32 33 34 24 2 34
-3 50 -29 72 -114 239 -107 300 13 19 37 19 116 -1 154 -13 26 -14 63 -8 277
5 194 4 251 -6 263 -10 12 -45 15 -209 15 -108 0 -201 -4 -208 -8 -6 -4 -15
-20 -18 -35 -7 -25 -11 -27 -60 -27 l-52 0 -5 52 c-8 76 -12 78 -218 78 -144
0 -180 -3 -198 -16z m386 -129 c4 -145 1 -155 -43 -155 -33 0 -35 -2 -35 -32
l0 -32 -33 32 c-32 31 -33 31 -147 34 l-115 3 -3 119 c-1 66 0 126 2 133 4 11
43 13 188 11 l183 -3 3 -110z m561 51 c8 -9 11 -56 9 -142 l-3 -129 -125 -3
-125 -3 -37 -36 -37 -36 -3 34 c-3 29 -7 35 -33 39 l-30 5 -3 130 c-1 71 0
135 2 142 8 20 369 19 385 -1z m-419 -86 c0 -19 -5 -21 -57 -18 -44 2 -57 7
-59 21 -2 14 6 17 57 17 53 0 59 -2 59 -20z m0 -108 c0 -74 17 -112 51 -112
14 0 19 -7 19 -29 0 -16 6 -34 14 -41 12 -9 23 -4 59 29 44 41 44 41 126 41
l81 0 0 -63 0 -63 -40 4 c-53 5 -123 -29 -150 -74 -27 -42 -53 -44 -70 -4 -7
17 -21 37 -32 44 -15 11 -17 18 -9 40 13 32 1 68 -31 90 -32 22 -55 20 -83 -9
-26 -25 -34 -78 -14 -91 7 -4 -1 -18 -21 -39 l-31 -32 -29 29 c-26 25 -28 32
-18 58 19 56 -40 112 -95 91 -37 -14 -54 -53 -40 -91 9 -25 8 -32 -9 -47 -11
-10 -26 -30 -34 -45 -12 -24 -21 -28 -54 -28 l-40 0 0 150 0 150 78 0 c74 0
80 -2 107 -30 37 -39 64 -39 71 -1 5 22 13 30 35 35 31 6 49 36 49 82 0 22 3
24 55 24 l55 0 0 -68z m-478 -204 l3 -163 303 -3 302 -2 0 -35 0 -35 -304 0
c-167 0 -311 3 -320 6 -23 9 -24 394 -1 394 12 0 15 -27 17 -162z m888 16 c0
-56 -3 -75 -12 -72 -9 3 -14 30 -16 76 -2 60 0 72 13 72 12 0 15 -14 15 -76z
m-622 24 c16 -16 15 -53 -2 -67 -8 -7 -27 -11 -43 -9 -51 6 -41 88 11 88 12 0
27 -5 34 -12z m226 -4 c34 -34 9 -78 -40 -72 -34 4 -48 37 -28 67 18 25 46 27
68 5z m-200 -125 c49 -39 35 -49 -64 -49 -87 0 -90 1 -80 19 27 52 98 66 144
30z m231 -4 c14 -13 25 -29 25 -35 0 -6 -34 -10 -90 -10 l-91 0 12 23 c19 34
40 46 82 47 27 0 45 -7 62 -25z m185 5 c-6 -11 -18 -20 -28 -20 -13 0 -12 4 8
20 31 25 33 25 20 0z m60 0 c0 -13 -7 -20 -20 -20 -18 0 -19 3 -10 20 6 11 15
20 20 20 6 0 10 -9 10 -20z m50 0 c9 -17 8 -20 -10 -20 -13 0 -20 7 -20 20 0
11 4 20 10 20 5 0 14 -9 20 -20z m60 -5 c10 -12 10 -15 -3 -15 -8 0 -17 7 -21
15 -3 8 -2 15 3 15 5 0 14 -7 21 -15z m-190 -70 c0 -20 -5 -25 -25 -25 -18 0
-25 5 -25 18 0 24 8 32 32 32 13 0 18 -7 18 -25z m80 0 c0 -20 -5 -25 -25 -25
-20 0 -25 5 -25 25 0 20 5 25 25 25 20 0 25 -5 25 -25z m70 -1 c0 -21 -4 -25
-22 -22 -33 4 -34 48 -2 48 19 0 24 -5 24 -26z m78 -1 c3 -19 -1 -23 -22 -23
-21 0 -26 5 -26 26 0 21 4 25 23 22 14 -2 23 -11 25 -25z m-228 -78 c0 -29
-34 -36 -44 -9 -10 27 -7 34 19 34 20 0 25 -5 25 -25z m78 3 c-2 -15 -11 -24
-25 -26 -19 -3 -23 1 -23 22 0 21 5 26 26 26 21 0 25 -4 22 -22z m72 -4 c0
-21 -4 -25 -22 -22 -33 4 -34 48 -2 48 19 0 24 -5 24 -26z m81 4 c-4 -13 -18
-24 -30 -26 -17 -3 -21 2 -21 22 0 22 4 26 30 26 26 0 28 -2 21 -22z m-391
-58 l0 -30 -115 0 -115 0 0 30 0 30 115 0 115 0 0 -30z m175 -11 c11 -17 -1
-21 -15 -4 -8 9 -8 15 -2 15 6 0 14 -5 17 -11z m65 -9 c0 -11 -4 -20 -10 -20
-5 0 -14 9 -20 20 -9 17 -8 20 10 20 13 0 20 -7 20 -20z m50 0 c-6 -11 -14
-20 -18 -20 -4 0 -8 9 -8 20 0 13 7 20 18 20 16 0 17 -3 8 -20z m54 6 c-21
-15 -30 -14 -19 3 3 6 14 11 23 11 13 0 13 -2 -4 -14z m-241 -55 c6 -6 8 -13
5 -16 -3 -3 -108 -4 -233 -3 -203 3 -227 5 -214 18 13 13 50 15 224 13 126 -1
212 -6 218 -12z"/>
<path d="M201 1136 c-8 -9 -11 -46 -9 -107 l3 -94 154 -5 c84 -3 157 -2 162 1
6 3 8 53 7 110 l-3 104 -151 3 c-121 2 -153 0 -163 -12z m213 -56 c-27 -22
-53 -40 -59 -40 -5 0 -30 18 -55 40 l-45 39 104 1 103 0 -48 -40z m-148 -7
l35 -26 -32 -34 c-18 -18 -37 -33 -41 -33 -4 0 -8 27 -8 60 0 33 3 60 6 60 3
0 21 -12 40 -27z m222 -62 l-3 -30 -35 30 -35 29 35 32 35 32 3 -32 c2 -18 2
-45 0 -61z m-140 -3 c8 -8 15 -8 26 1 18 15 40 5 75 -33 l24 -26 -113 0 -114
0 34 35 c36 37 49 42 68 23z"/>
<path d="M827 1084 c-14 -14 -7 -24 18 -24 34 0 94 -26 123 -53 30 -28 47 -62
56 -109 9 -48 26 -49 26 -3 0 65 -48 134 -115 168 -38 19 -98 31 -108 21z"/>
<path d="M822 1008 c3 -7 17 -14 33 -16 55 -7 105 -60 105 -112 0 -12 7 -20
16 -20 13 0 15 7 11 35 -8 47 -39 89 -81 109 -41 19 -89 21 -84 4z"/>
<path d="M820 946 c0 -9 12 -16 28 -18 19 -2 31 -12 42 -35 16 -34 40 -44 40
-17 0 26 -19 53 -50 69 -37 19 -60 19 -60 1z"/>
<path d="M814 885 c-8 -21 2 -45 19 -45 8 0 20 7 27 15 10 12 10 18 0 30 -7 8
-19 15 -27 15 -7 0 -16 -7 -19 -15z"/>
<path d="M127 242 c-22 -25 -21 -75 1 -95 43 -39 109 -1 98 57 -11 54 -66 75
-99 38z m61 -14 c25 -25 8 -78 -25 -78 -22 0 -37 44 -24 69 13 24 31 27 49 9z"/>
<path d="M605 250 c-3 -5 1 -10 9 -10 9 0 16 5 16 10 0 6 -4 10 -9 10 -6 0
-13 -4 -16 -10z"/>
<path d="M263 222 c-20 -3 -23 -10 -23 -48 0 -32 4 -44 15 -44 10 0 15 10 15
31 0 18 7 37 17 44 19 14 7 23 -24 17z"/>
<path d="M316 215 c-33 -34 -5 -92 37 -79 20 6 20 5 8 -10 -10 -12 -17 -14
-25 -6 -14 14 -26 13 -26 -4 0 -18 30 -25 58 -15 19 7 22 16 22 64 0 41 -4 55
-14 55 -8 0 -21 3 -29 6 -8 3 -22 -2 -31 -11z m42 -52 c-16 -15 -18 -15 -24 0
-3 9 -3 25 0 34 6 15 8 15 24 0 15 -16 15 -18 0 -34z"/>
<path d="M422 218 c-19 -19 -14 -30 7 -18 25 13 31 13 31 0 0 -5 -6 -10 -14
-10 -21 0 -46 -28 -40 -45 4 -9 20 -14 45 -13 37 0 39 2 39 33 0 51 -39 82
-68 53z m38 -58 c0 -5 -7 -10 -15 -10 -8 0 -15 5 -15 10 0 6 7 10 15 10 8 0
15 -4 15 -10z"/>
<path d="M528 222 c-26 -3 -28 -7 -28 -48 0 -32 4 -44 14 -44 10 0 16 13 18
38 2 20 8 37 13 37 6 0 11 -17 13 -37 5 -54 32 -52 32 2 0 44 -17 58 -62 52z"/>
<path d="M813 223 c-7 -2 -13 -11 -13 -19 0 -11 4 -12 19 -5 10 6 21 7 25 4 3
-4 -8 -13 -25 -20 -44 -18 -36 -48 14 -50 l37 -1 0 43 c0 49 -18 64 -57 48z
m37 -63 c0 -5 -7 -10 -15 -10 -8 0 -15 5 -15 10 0 6 7 10 15 10 8 0 15 -4 15
-10z"/>
<path d="M900 215 c-16 -20 -5 -45 20 -45 11 0 20 -5 20 -11 0 -7 -10 -9 -26
-5 -19 5 -25 3 -22 -6 7 -20 53 -21 68 -2 12 14 12 18 -5 30 -10 8 -25 14 -33
14 -7 0 -10 5 -7 10 4 6 15 8 26 5 23 -8 26 10 3 19 -23 9 -30 8 -44 -9z"/>
<path d="M990 215 c-16 -20 -5 -45 20 -45 11 0 20 -5 20 -11 0 -7 -10 -9 -26
-5 -19 5 -25 3 -22 -6 7 -20 53 -21 68 -2 12 14 12 18 -5 30 -10 8 -25 14 -33
14 -7 0 -10 5 -7 10 4 6 15 8 26 5 23 -8 26 10 3 19 -23 9 -30 8 -44 -9z"/>
<path d="M1088 219 c-22 -12 -24 -62 -4 -79 43 -35 99 28 61 70 -20 22 -32 24
-57 9z m42 -45 c0 -15 -6 -24 -15 -24 -21 0 -30 27 -15 45 16 19 30 10 30 -21z"/>
<path d="M602 178 c4 -59 28 -63 28 -4 0 35 -4 46 -16 46 -12 0 -14 -9 -12
-42z"/>
<path d="M645 210 c3 -5 13 -10 21 -10 12 0 11 -5 -5 -26 -11 -15 -18 -30 -15
-35 7 -12 74 -11 74 1 0 6 -9 10 -20 10 -11 0 -20 4 -20 8 0 5 9 17 20 27 30
27 25 35 -21 35 -24 0 -38 -4 -34 -10z"/>
<path d="M730 180 c0 -5 11 -10 25 -10 14 0 25 5 25 10 0 6 -11 10 -25 10 -14
0 -25 -4 -25 -10z"/>
</g>
</svg>
